<?xml version="1.0" encoding="UTF-8" standalone="no"?>
<!-- Created with Inkscape (http://www.inkscape.org/) -->

<svg
   xmlns:dc="http://purl.org/dc/elements/1.1/"
   xmlns:cc="http://creativecommons.org/ns#"
   xmlns:rdf="http://www.w3.org/1999/02/22-rdf-syntax-ns#"
   xmlns:svg="http://www.w3.org/2000/svg"
   xmlns="http://www.w3.org/2000/svg"
   xmlns:sodipodi="http://sodipodi.sourceforge.net/DTD/sodipodi-0.dtd"
   xmlns:inkscape="http://www.inkscape.org/namespaces/inkscape"
   width="99.403122mm"
   height="70.403122mm"
   viewBox="0 0 99.403122 70.403122"
   version="1.1"
   id="svg6343"
   inkscape:version="0.92.2 (5c3e80d, 2017-08-06)"
   sodipodi:docname="Bottom.svg">
  <defs
     id="defs6337" />
  <sodipodi:namedview
     id="base"
     pagecolor="#ffffff"
     bordercolor="#666666"
     borderopacity="1.0"
     inkscape:pageopacity="0.0"
     inkscape:pageshadow="2"
     inkscape:zoom="0.35"
     inkscape:cx="307.84841"
     inkscape:cy="-401.24044"
     inkscape:document-units="mm"
     inkscape:current-layer="layer1"
     showgrid="false"
     fit-margin-top="0"
     fit-margin-left="0"
     fit-margin-right="0"
     fit-margin-bottom="0"
     inkscape:window-width="1440"
     inkscape:window-height="828"
     inkscape:window-x="0"
     inkscape:window-y="23"
     inkscape:window-maximized="0" />
  <metadata
     id="metadata6340">
    <rdf:RDF>
      <cc:Work
         rdf:about="">
        <dc:format>image/svg+xml</dc:format>
        <dc:type
           rdf:resource="http://purl.org/dc/dcmitype/StillImage" />
        <dc:title></dc:title>
      </cc:Work>
    </rdf:RDF>
  </metadata>
  <g
     inkscape:label="Laag 1"
     inkscape:groupmode="layer"
     id="layer1"
     transform="translate(101.10632,27.731325)">
    <g
       transform="translate(-102.00632,-9883.729)"
       id="g6320">
      <path
         inkscape:connector-curvature="0"
         id="path995"
         transform="matrix(1,0,0,-1,5.101562,9922.3008)"
         d="m 0,0 h 9.5 m 0,0 C 9.445312,0 9.398438,0.0429688 9.398438,0.101562 m 0,0 v -4 C 9.398438,-3.953125 9.441406,-4 9.5,-4 m 0,0 h 8 c 0.05469,0 0.101562,0.042969 0.101562,0.101562 m 0,0 v 4 C 17.601562,0.046875 17.558594,0 17.5,0 m 0,0 h 8 m 0,0 c -0.05469,0 -0.101562,0.0429688 -0.101562,0.101562 m 0,0 v -4 C 25.398438,-3.953125 25.441406,-4 25.5,-4 m 0,0 h 8 c 0.05469,0 0.101562,0.042969 0.101562,0.101562 m 0,0 v 4 C 33.601562,0.046875 33.558594,0 33.5,0 m 0,0 h 8 m 0,0 c -0.05469,0 -0.101562,0.0429688 -0.101562,0.101562 m 0,0 v -4 C 41.398438,-3.953125 41.441406,-4 41.5,-4 m 0,0 h 8 c 0.05469,0 0.101562,0.042969 0.101562,0.101562 m 0,0 v 4 C 49.601562,0.046875 49.558594,0 49.5,0 m 0,0 h 8 m 0,0 c -0.05469,0 -0.101562,0.0429688 -0.101562,0.101562 m 0,0 v -4 C 57.398438,-3.953125 57.441406,-4 57.5,-4 m 0,0 h 8 c 0.05469,0 0.101562,0.042969 0.101562,0.101562 m 0,0 v 4 C 65.601562,0.046875 65.558594,0 65.5,0 m 0,0 h 8 m 0,0 c -0.05469,0 -0.101562,0.0429688 -0.101562,0.101562 m 0,0 v -4 C 73.398438,-3.953125 73.441406,-4 73.5,-4 m 0,0 h 8 c 0.05469,0 0.101562,0.042969 0.101562,0.101562 m 0,0 v 4 C 81.601562,0.046875 81.558594,0 81.5,0 m 0,0 H 91 m 0,0 c 0.05469,0 0.101562,0.0429688 0.101562,0.101562 m 0,0 v 0 m 0,0 v 11 m 0,0 C 91.101562,11.046875 91.058594,11 91,11 m 0,0 h 4 c 0.05469,0 0.101562,0.04297 0.101562,0.101562 m 0,0 v 8 c 0,0.05469 -0.04297,0.101563 -0.101562,0.101563 m 0,0 h -4 c 0.05469,0 0.101562,-0.04297 0.101562,-0.101563 m 0,0 v 8 m 0,0 C 91.101562,27.046875 91.058594,27 91,27 m 0,0 h 4 c 0.05469,0 0.101562,0.04297 0.101562,0.101562 m 0,0 v 8 c 0,0.05469 -0.04297,0.101563 -0.101562,0.101563 m 0,0 h -4 c 0.05469,0 0.101562,-0.04297 0.101562,-0.101563 m 0,0 v 8 m 0,0 C 91.101562,43.046875 91.058594,43 91,43 m 0,0 h 4 c 0.05469,0 0.101562,0.04297 0.101562,0.101562 m 0,0 v 8 c 0,0.05469 -0.04297,0.101563 -0.101562,0.101563 m 0,0 h -4 c 0.05469,0 0.101562,-0.04297 0.101562,-0.101563 m 0,0 v 11 m 0,0 c 0,0.05469 -0.04297,0.101563 -0.101562,0.101563 m 0,0 v 0 m 0,0 h -9.5 m 0,0 c 0.05469,0 0.101562,-0.04297 0.101562,-0.101563 m 0,0 v 4 c 0,0.05469 -0.04297,0.101563 -0.101562,0.101563 m 0,0 h -8 c -0.05469,0 -0.101563,-0.04297 -0.101563,-0.101563 m 0,0 v -4 c 0,0.05469 0.04297,0.101563 0.101563,0.101563 m 0,0 h -8 m 0,0 c 0.05469,0 0.101562,-0.04297 0.101562,-0.101563 m 0,0 v 4 c 0,0.05469 -0.04297,0.101563 -0.101562,0.101563 m 0,0 h -8 c -0.05469,0 -0.101563,-0.04297 -0.101563,-0.101563 m 0,0 v -4 c 0,0.05469 0.04297,0.101563 0.101563,0.101563 m 0,0 h -8 m 0,0 c 0.05469,0 0.101562,-0.04297 0.101562,-0.101563 m 0,0 v 4 c 0,0.05469 -0.04297,0.101563 -0.101562,0.101563 m 0,0 h -8 c -0.05469,0 -0.101563,-0.04297 -0.101563,-0.101563 m 0,0 v -4 c 0,0.05469 0.04297,0.101563 0.101563,0.101563 m 0,0 h -8 m 0,0 c 0.05469,0 0.101562,-0.04297 0.101562,-0.101563 m 0,0 v 4 c 0,0.05469 -0.04297,0.101563 -0.101562,0.101563 m 0,0 h -8 c -0.05469,0 -0.101563,-0.04297 -0.101563,-0.101563 m 0,0 v -4 c 0,0.05469 0.04297,0.101563 0.101563,0.101563 m 0,0 h -8 m 0,0 c 0.05469,0 0.101562,-0.04297 0.101562,-0.101563 m 0,0 v 4 c 0,0.05469 -0.04297,0.101563 -0.101562,0.101563 m 0,0 h -8 c -0.054688,0 -0.101563,-0.04297 -0.101563,-0.101563 m 0,0 v -4 c 0,0.05469 0.042969,0.101563 0.101563,0.101563 m 0,0 H 0 m 0,0 c -0.0546875,0 -0.101563,-0.04297 -0.101563,-0.101563 m 0,0 v 0 m 0,0 v -11 m 0,0 c 0,0.05469 0.0429692,0.101563 0.101563,0.101563 m 0,0 h -4 c -0.054688,0 -0.101563,-0.04297 -0.101563,-0.101563 m 0,0 v -8 C -4.101563,43.046875 -4.058594,43 -4,43 m 0,0 h 4 c -0.0546875,0 -0.101563,0.04297 -0.101563,0.101562 m 0,0 v -8 m 0,0 c 0,0.05469 0.0429692,0.101563 0.101563,0.101563 m 0,0 h -4 c -0.054688,0 -0.101563,-0.04297 -0.101563,-0.101563 m 0,0 v -8 C -4.101563,27.046875 -4.058594,27 -4,27 m 0,0 h 4 c -0.0546875,0 -0.101563,0.04297 -0.101563,0.101562 m 0,0 v -8 m 0,0 c 0,0.05469 0.0429692,0.101563 0.101563,0.101563 m 0,0 h -4 c -0.054688,0 -0.101563,-0.04297 -0.101563,-0.101563 m 0,0 v -8 C -4.101563,11.046875 -4.058594,11 -4,11 m 0,0 h 4 c -0.0546875,0 -0.101563,0.04297 -0.101563,0.101562 m 0,0 1e-6,-11 m 0,0 C -0.101562,0.046875 -0.0585938,0 0,0 m 0,0 v 0"
         style="fill:none;stroke:#ff0000;stroke-width:0.19999999;stroke-linecap:butt;stroke-linejoin:miter;stroke-miterlimit:9.33333302;stroke-dasharray:none;stroke-opacity:1" />
      <g
         style="stroke-width:0.20002499;stroke-miterlimit:10;stroke-dasharray:none"
         transform="translate(99.754103,27.131419)"
         id="g6190">
        <circle
           style="fill:none;fill-opacity:1;stroke:#ff0000;stroke-width:0.19999999;stroke-miterlimit:9.33333302;stroke-dasharray:none;stroke-opacity:1"
           id="path840"
           cx="-88.152542"
           cy="9839.5674"
           r="1.3897629"
           inkscape:transform-center-x="0.26726953"
           inkscape:transform-center-y="2.5390605" />
        <circle
           style="fill:none;fill-opacity:1;stroke:#ff0000;stroke-width:0.19999999;stroke-miterlimit:9.33333302;stroke-dasharray:none;stroke-opacity:1"
           id="path840-3"
           cx="-88.152542"
           cy="9888.5674"
           r="1.3897629" />
        <circle
           style="fill:none;fill-opacity:1;stroke:#ff0000;stroke-width:0.19999999;stroke-miterlimit:9.33333302;stroke-dasharray:none;stroke-opacity:1"
           id="path840-8"
           cx="-30.152546"
           cy="9888.5674"
           r="1.3897629" />
        <circle
           style="fill:none;fill-opacity:1;stroke:#ff0000;stroke-width:0.19999999;stroke-miterlimit:9.33333302;stroke-dasharray:none;stroke-opacity:1"
           id="path840-1"
           cx="-30.152546"
           cy="9839.5674"
           r="1.3897629" />
      </g>
    </g>
  </g>
</svg>
