<?xml version="1.0" encoding="UTF-8" standalone="no"?>
<!-- Created with Inkscape (http://www.inkscape.org/) -->

<svg
   xmlns:dc="http://purl.org/dc/elements/1.1/"
   xmlns:cc="http://creativecommons.org/ns#"
   xmlns:rdf="http://www.w3.org/1999/02/22-rdf-syntax-ns#"
   xmlns:svg="http://www.w3.org/2000/svg"
   xmlns="http://www.w3.org/2000/svg"
   xmlns:sodipodi="http://sodipodi.sourceforge.net/DTD/sodipodi-0.dtd"
   xmlns:inkscape="http://www.inkscape.org/namespaces/inkscape"
   width="200.60236mm"
   height="130.80156mm"
   viewBox="0 0 200.60236 130.80156"
   version="1.1"
   id="svg8"
   inkscape:version="0.92.2 (5c3e80d, 2017-08-06)"
   sodipodi:docname="Case.svg">
  <defs
     id="defs2" />
  <sodipodi:namedview
     id="base"
     pagecolor="#ffffff"
     bordercolor="#666666"
     borderopacity="1.0"
     inkscape:pageopacity="0.0"
     inkscape:pageshadow="2"
     inkscape:zoom="0.49497475"
     inkscape:cx="881.02642"
     inkscape:cy="242.66414"
     inkscape:document-units="mm"
     inkscape:current-layer="g1590"
     showgrid="false"
     inkscape:window-width="1440"
     inkscape:window-height="828"
     inkscape:window-x="0"
     inkscape:window-y="23"
     inkscape:window-maximized="0"
     fit-margin-top="0"
     fit-margin-left="0"
     fit-margin-right="0"
     fit-margin-bottom="0" />
  <metadata
     id="metadata5">
    <rdf:RDF>
      <cc:Work
         rdf:about="">
        <dc:format>image/svg+xml</dc:format>
        <dc:type
           rdf:resource="http://purl.org/dc/dcmitype/StillImage" />
        <dc:title></dc:title>
      </cc:Work>
    </rdf:RDF>
  </metadata>
  <g
     inkscape:label="Laag 1"
     inkscape:groupmode="layer"
     id="layer1"
     transform="translate(-131.39823,-92.126003)">
    <g
       id="g1590"
       transform="translate(108.45991,7.6668455)">
      <path
         inkscape:connector-curvature="0"
         id="path834"
         d="m 33.639881,95.160713 h 58"
         style="fill:none;stroke:#ff0000;stroke-width:0.21145555;stroke-linecap:butt;stroke-linejoin:miter;stroke-miterlimit:4;stroke-dasharray:none;stroke-opacity:1" />
      <path
         inkscape:connector-curvature="0"
         id="path836"
         d="M 91.639881,95.160713 V 144.16071"
         style="fill:none;stroke:#ff0000;stroke-width:0.32967424px;stroke-linecap:butt;stroke-linejoin:miter;stroke-opacity:1" />
      <path
         inkscape:connector-curvature="0"
         id="path838"
         d="m 91.639881,144.16071 h -58"
         style="fill:none;stroke:#ff0000;stroke-width:0.27569136px;stroke-linecap:butt;stroke-linejoin:miter;stroke-opacity:1" />
      <circle
         inkscape:transform-center-y="2.5390605"
         inkscape:transform-center-x="0.26726953"
         r="1.389763"
         cy="95.160713"
         cx="33.639881"
         id="path840"
         style="fill:none;fill-opacity:1;stroke:#ff0000;stroke-width:0.22047389;stroke-miterlimit:4;stroke-dasharray:none;stroke-opacity:1" />
      <circle
         r="1.389763"
         cy="144.16071"
         cx="33.639881"
         id="path840-3"
         style="fill:none;fill-opacity:1;stroke:#ff0000;stroke-width:0.22047389;stroke-miterlimit:4;stroke-dasharray:none;stroke-opacity:1" />
      <circle
         r="1.389763"
         cy="144.16071"
         cx="91.639877"
         id="path840-8"
         style="fill:none;fill-opacity:1;stroke:#ff0000;stroke-width:0.22047389;stroke-miterlimit:4;stroke-dasharray:none;stroke-opacity:1" />
      <circle
         r="1.389763"
         cy="95.160713"
         cx="91.639877"
         id="path840-1"
         style="fill:none;fill-opacity:1;stroke:#ff0000;stroke-width:0.22047389;stroke-miterlimit:4;stroke-dasharray:none;stroke-opacity:1" />
      <path
         inkscape:connector-curvature="0"
         id="path895"
         d="m 30.13988,147.59633 85,0.0644"
         style="fill:none;stroke:#000000;stroke-width:0.26458332px;stroke-linecap:butt;stroke-linejoin:miter;stroke-opacity:1" />
      <path
         inkscape:connector-curvature="0"
         id="path897"
         d="M 30.13988,91.660713 V 147.59633"
         style="fill:none;stroke:#000000;stroke-width:0.26458332px;stroke-linecap:butt;stroke-linejoin:miter;stroke-opacity:1" />
      <path
         inkscape:connector-curvature="0"
         id="path899"
         d="m 30.13988,91.660712 h 85"
         style="fill:none;stroke:#000000;stroke-width:0.26458332px;stroke-linecap:butt;stroke-linejoin:miter;stroke-opacity:1" />
      <path
         inkscape:connector-curvature="0"
         id="path901"
         d="M 115.13988,91.660712 V 147.66073"
         style="fill:none;stroke:#000000;stroke-width:0.26458332px;stroke-linecap:butt;stroke-linejoin:miter;stroke-opacity:1" />
      <path
         style="fill:none;stroke:#000000;stroke-width:0.27218252px;stroke-linecap:butt;stroke-linejoin:miter;stroke-opacity:1"
         d="m 246.88921,133.23989 h 56"
         id="path1598"
         inkscape:connector-curvature="0" />
      <path
         style="fill:none;stroke:#000000;stroke-width:0.26458332px;stroke-linecap:butt;stroke-linejoin:miter;stroke-opacity:1"
         d="M 246.88921,133.23989 V 118.30983"
         id="path1600"
         inkscape:connector-curvature="0" />
    </g>
    <path
       id="path987"
       d="m 135.59979,222.82757 h 9.5 m 0,0 c 0.0547,0 0.10156,-0.043 0.10156,-0.10156 m 0,0 v -4 c 0,0.0547 -0.043,0.10156 -0.10156,0.10156 m 0,0 h 8 c -0.0547,0 -0.10156,-0.043 -0.10156,-0.10156 m 0,0 v 4 c 0,0.0547 0.043,0.10156 0.10156,0.10156 m 0,0 h 8 m 0,0 c 0.0547,0 0.10156,-0.043 0.10156,-0.10156 m 0,0 v -4 c 0,0.0547 -0.043,0.10156 -0.10156,0.10156 m 0,0 h 8 c -0.0547,0 -0.10156,-0.043 -0.10156,-0.10156 m 0,0 v 4 c 0,0.0547 0.043,0.10156 0.10156,0.10156 m 0,0 h 8 m 0,0 c 0.0547,0 0.10156,-0.043 0.10156,-0.10156 m 0,0 v -4 c 0,0.0547 -0.043,0.10156 -0.10156,0.10156 m 0,0 h 8 c -0.0547,0 -0.10156,-0.043 -0.10156,-0.10156 m 0,0 v 4 c 0,0.0547 0.043,0.10156 0.10156,0.10156 m 0,0 h 8 m 0,0 c 0.0547,0 0.10156,-0.043 0.10156,-0.10156 m 0,0 v -4 c 0,0.0547 -0.043,0.10156 -0.10156,0.10156 m 0,0 h 8 c -0.0547,0 -0.10156,-0.043 -0.10156,-0.10156 m 0,0 v 4 c 0,0.0547 0.043,0.10156 0.10156,0.10156 m 0,0 h 8 m 0,0 c 0.0547,0 0.10157,-0.043 0.10157,-0.10156 m 0,0 v -4 c 0,0.0547 -0.043,0.10156 -0.10157,0.10156 m 0,0 h 8 c -0.0547,0 -0.10156,-0.043 -0.10156,-0.10156 m 0,0 v 4 c 0,0.0547 0.043,0.10156 0.10156,0.10156 m 0,0 h 9.5 m 0,0 h 4.00001 c 0.0547,0 0.10156,-0.043 0.10156,-0.10156 m 0,0 v -4 m 0,0 V 208.726 m 0,0 v -9.99999 m 0,0 v -4 c 0,-0.0547 -0.043,-0.10157 -0.10156,-0.10157 m 0,0 h -4.00001 m 0,0 h -9.5 m 0,0 c -0.0547,0 -0.10156,0.043 -0.10156,0.10157 m 0,0 v 4 c 0,-0.0547 0.043,-0.10157 0.10156,-0.10157 m 0,0 h -8 c 0.0547,0 0.10157,0.043 0.10157,0.10157 m 0,0 v -4 c 0,-0.0547 -0.043,-0.10157 -0.10157,-0.10157 m 0,0 h -8 m 0,0 c -0.0547,0 -0.10156,0.043 -0.10156,0.10157 m 0,0 v 4 c 0,-0.0547 0.043,-0.10157 0.10156,-0.10157 m 0,0 h -8 c 0.0547,0 0.10156,0.043 0.10156,0.10157 m 0,0 v -4 c 0,-0.0547 -0.043,-0.10157 -0.10156,-0.10157 m 0,0 h -8 m 0,0 c -0.0547,0 -0.10156,0.043 -0.10156,0.10157 m 0,0 v 4 c 0,-0.0547 0.043,-0.10157 0.10156,-0.10157 m 0,0 h -8 c 0.0547,0 0.10156,0.043 0.10156,0.10157 m 0,0 v -4 c 0,-0.0547 -0.043,-0.10157 -0.10156,-0.10157 m 0,0 h -8 m 0,0 c -0.0547,0 -0.10156,0.043 -0.10156,0.10157 m 0,0 v 4 c 0,-0.0547 0.043,-0.10157 0.10156,-0.10157 m 0,0 h -8 c 0.0547,0 0.10156,0.043 0.10156,0.10157 m 0,0 v -4 c 0,-0.0547 -0.043,-0.10157 -0.10156,-0.10157 m 0,0 h -8 m 0,0 c -0.0547,0 -0.10156,0.043 -0.10156,0.10157 m 0,0 v 4 c 0,-0.0547 0.043,-0.10157 0.10156,-0.10157 m 0,0 h -8 c 0.0547,0 0.10156,0.043 0.10156,0.10157 m 0,0 v -4 c 0,-0.0547 -0.043,-0.10157 -0.10156,-0.10157 m 0,0 h -9.5 m 0,0 h -4 c -0.0547,0 -0.10156,0.043 -0.10156,0.10157 m 0,0 v 4 m 0,0 v 9.99999 m 0,0 v 10.00001 m 0,0 v 4 c 0,0.0547 0.043,0.10156 0.10156,0.10156 m 0,0 h 4"
       style="fill:none;stroke:#000000;stroke-width:0.20000002;stroke-linecap:butt;stroke-linejoin:miter;stroke-miterlimit:10;stroke-opacity:1"
       inkscape:connector-curvature="0" />
    <path
       id="path989"
       d="m 236.79901,222.82757 h 11 m 0,0 c 0.0547,0 0.10157,-0.043 0.10157,-0.10156 m 0,0 v -4 c 0,0.0547 -0.043,0.10156 -0.10157,0.10156 m 0,0 h 8.00001 c -0.0547,0 -0.10157,-0.043 -0.10157,-0.10156 m 0,0 v 4 c 0,0.0547 0.043,0.10156 0.10157,0.10156 m 0,0 h 8 m 0,0 c 0.0547,0 0.10156,-0.043 0.10156,-0.10156 m 0,0 v -4 c 0,0.0547 -0.043,0.10156 -0.10156,0.10156 m 0,0 h 8 c -0.0547,0 -0.10157,-0.043 -0.10157,-0.10156 m 0,0 v 4 c 0,0.0547 0.043,0.10156 0.10157,0.10156 m 0,0 h 8 m 0,0 c 0.0547,0 0.10156,-0.043 0.10156,-0.10156 m 0,0 v -4 c 0,0.0547 -0.043,0.10156 -0.10156,0.10156 m 0,0 h 8 c -0.0547,0 -0.10156,-0.043 -0.10156,-0.10156 m 0,0 v 4 c 0,0.0547 0.043,0.10156 0.10156,0.10156 m 0,0 h 11 m 0,0 c 0.0547,0 0.10156,-0.043 0.10156,-0.10156 m 0,0 v -4 m 0,0 V 208.726 m 0,0 v -9.99999 m 0,0 v -4 c 0,-0.0547 -0.043,-0.10157 -0.10156,-0.10157 m 0,0 v 0 m 0,0 h -11 m 0,0 c -0.0547,0 -0.10156,0.043 -0.10156,0.10157 m 0,0 v 4 c 0,-0.0547 0.043,-0.10157 0.10156,-0.10157 m 0,0 h -8 c 0.0547,0 0.10156,0.043 0.10156,0.10157 m 0,0 v -4 c 0,-0.0547 -0.043,-0.10157 -0.10156,-0.10157 m 0,0 h -8 m 0,0 c -0.0547,0 -0.10157,0.043 -0.10157,0.10157 m 0,0 v 4 c 0,-0.0547 0.043,-0.10157 0.10157,-0.10157 m 0,0 h -8 c 0.0547,0 0.10156,0.043 0.10156,0.10157 m 0,0 v -4 c 0,-0.0547 -0.043,-0.10157 -0.10156,-0.10157 m 0,0 h -8 m 0,0 c -0.0547,0 -0.10157,0.043 -0.10157,0.10157 m 0,0 v 4 c 0,-0.0547 0.043,-0.10157 0.10157,-0.10157 m 0,0 h -8.00001 c 0.0547,0 0.10157,0.043 0.10157,0.10157 m 0,0 v -4 c 0,-0.0547 -0.043,-0.10157 -0.10157,-0.10157 m 0,0 h -11 m 0,0 c -0.0547,0 -0.10156,0.043 -0.10156,0.10157 m 0,0 v 4 m 0,0 v 9.99999 m 0,0 v 10.00001 m 0,0 v 4 c 0,0.0547 0.043,0.10156 0.10156,0.10156 m 0,0 v 0"
       style="fill:none;stroke:#000000;stroke-width:0.20000002;stroke-linecap:butt;stroke-linejoin:miter;stroke-miterlimit:10;stroke-opacity:1"
       inkscape:connector-curvature="0" />
    <path
       id="path991"
       d="m 236.79901,192.62835 h 11 m 0,0 c 0.0547,0 0.10157,-0.043 0.10157,-0.10157 m 0,0 v -4 c 0,0.0547 -0.043,0.10157 -0.10157,0.10157 m 0,0 h 8.00001 c -0.0547,0 -0.10157,-0.043 -0.10157,-0.10157 m 0,0 v 4 c 0,0.0547 0.043,0.10157 0.10157,0.10157 m 0,0 h 8 m 0,0 c 0.0547,0 0.10156,-0.043 0.10156,-0.10157 m 0,0 v -4 c 0,0.0547 -0.043,0.10157 -0.10156,0.10157 m 0,0 h 8 c -0.0547,0 -0.10157,-0.043 -0.10157,-0.10157 m 0,0 v 4 c 0,0.0547 0.043,0.10157 0.10157,0.10157 m 0,0 h 8 m 0,0 c 0.0547,0 0.10156,-0.043 0.10156,-0.10157 m 0,0 v -4 c 0,0.0547 -0.043,0.10157 -0.10156,0.10157 m 0,0 h 8 c -0.0547,0 -0.10156,-0.043 -0.10156,-0.10157 m 0,0 v 4 c 0,0.0547 0.043,0.10157 0.10156,0.10157 m 0,0 h 11 m 0,0 c 0.0547,0 0.10156,-0.043 0.10156,-0.10157 m 0,0 v -4 m 0,0 v -10 m 0,0 v -10 m 0,0 v -4 c 0,-0.0547 -0.043,-0.10156 -0.10156,-0.10156 m 0,0 v 0 m 0,0 h -11 m 0,0 c -0.0547,0 -0.10156,0.043 -0.10156,0.10156 m 0,0 v 4 c 0,-0.0547 0.043,-0.10156 0.10156,-0.10156 m 0,0 h -8 c 0.0547,0 0.10156,0.043 0.10156,0.10156 m 0,0 v -4 c 0,-0.0547 -0.043,-0.10156 -0.10156,-0.10156 m 0,0 h -8 m 0,0 c -0.0547,0 -0.10157,0.043 -0.10157,0.10156 m 0,0 v 4 c 0,-0.0547 0.043,-0.10156 0.10157,-0.10156 m 0,0 h -8 c 0.0547,0 0.10156,0.043 0.10156,0.10156 m 0,0 v -4 c 0,-0.0547 -0.043,-0.10156 -0.10156,-0.10156 m 0,0 h -8 m 0,0 c -0.0547,0 -0.10157,0.043 -0.10157,0.10156 m 0,0 v 4 c 0,-0.0547 0.043,-0.10156 0.10157,-0.10156 m 0,0 h -8.00001 c 0.0547,0 0.10157,0.043 0.10157,0.10156 m 0,0 v -4 c 0,-0.0547 -0.043,-0.10156 -0.10157,-0.10156 m 0,0 h -11 m 0,0 c -0.0547,0 -0.10156,0.043 -0.10156,0.10156 m 0,0 v 4 m 0,0 v 10 m 0,0 v 10 m 0,0 v 4 c 0,0.0547 0.043,0.10157 0.10156,0.10157 m 0,0 v 0"
       style="fill:none;stroke:#000000;stroke-width:0.20000002;stroke-linecap:butt;stroke-linejoin:miter;stroke-miterlimit:10;stroke-opacity:1"
       inkscape:connector-curvature="0" />
    <path
       id="path993"
       d="m 135.59979,192.62835 h 9.5 m 0,0 c 0.0547,0 0.10156,-0.043 0.10156,-0.10157 m 0,0 v -4 c 0,0.0547 -0.043,0.10157 -0.10156,0.10157 m 0,0 h 8 c -0.0547,0 -0.10156,-0.043 -0.10156,-0.10157 m 0,0 v 4 c 0,0.0547 0.043,0.10157 0.10156,0.10157 m 0,0 h 8 m 0,0 c 0.0547,0 0.10156,-0.043 0.10156,-0.10157 m 0,0 v -4 c 0,0.0547 -0.043,0.10157 -0.10156,0.10157 m 0,0 h 8 c -0.0547,0 -0.10156,-0.043 -0.10156,-0.10157 m 0,0 v 4 c 0,0.0547 0.043,0.10157 0.10156,0.10157 m 0,0 h 8 m 0,0 c 0.0547,0 0.10156,-0.043 0.10156,-0.10157 m 0,0 v -4 c 0,0.0547 -0.043,0.10157 -0.10156,0.10157 m 0,0 h 8 c -0.0547,0 -0.10156,-0.043 -0.10156,-0.10157 m 0,0 v 4 c 0,0.0547 0.043,0.10157 0.10156,0.10157 m 0,0 h 8 m 0,0 c 0.0547,0 0.10156,-0.043 0.10156,-0.10157 m 0,0 v -4 c 0,0.0547 -0.043,0.10157 -0.10156,0.10157 m 0,0 h 8 c -0.0547,0 -0.10156,-0.043 -0.10156,-0.10157 m 0,0 v 4 c 0,0.0547 0.043,0.10157 0.10156,0.10157 m 0,0 h 8 m 0,0 c 0.0547,0 0.10157,-0.043 0.10157,-0.10157 m 0,0 v -4 c 0,0.0547 -0.043,0.10157 -0.10157,0.10157 m 0,0 h 8 c -0.0547,0 -0.10156,-0.043 -0.10156,-0.10157 m 0,0 v 4 c 0,0.0547 0.043,0.10157 0.10156,0.10157 m 0,0 h 9.5 m 0,0 h 4.00001 c 0.0547,0 0.10156,-0.043 0.10156,-0.10157 m 0,0 v -4 m 0,0 v -10 m 0,0 v -10 m 0,0 v -4 c 0,-0.0547 -0.043,-0.10156 -0.10156,-0.10156 m 0,0 h -4.00001 m 0,0 h -9.5 m 0,0 c -0.0547,0 -0.10156,0.043 -0.10156,0.10156 m 0,0 v 4 c 0,-0.0547 0.043,-0.10156 0.10156,-0.10156 m 0,0 h -8 c 0.0547,0 0.10157,0.043 0.10157,0.10156 m 0,0 v -4 c 0,-0.0547 -0.043,-0.10156 -0.10157,-0.10156 m 0,0 h -8 m 0,0 c -0.0547,0 -0.10156,0.043 -0.10156,0.10156 m 0,0 v 4 c 0,-0.0547 0.043,-0.10156 0.10156,-0.10156 m 0,0 h -8 c 0.0547,0 0.10156,0.043 0.10156,0.10156 m 0,0 v -4 c 0,-0.0547 -0.043,-0.10156 -0.10156,-0.10156 m 0,0 h -8 m 0,0 c -0.0547,0 -0.10156,0.043 -0.10156,0.10156 m 0,0 v 4 c 0,-0.0547 0.043,-0.10156 0.10156,-0.10156 m 0,0 h -8 c 0.0547,0 0.10156,0.043 0.10156,0.10156 m 0,0 v -4 c 0,-0.0547 -0.043,-0.10156 -0.10156,-0.10156 m 0,0 h -8 m 0,0 c -0.0547,0 -0.10156,0.043 -0.10156,0.10156 m 0,0 v 4 c 0,-0.0547 0.043,-0.10156 0.10156,-0.10156 m 0,0 h -8 c 0.0547,0 0.10156,0.043 0.10156,0.10156 m 0,0 v -4 c 0,-0.0547 -0.043,-0.10156 -0.10156,-0.10156 m 0,0 h -8 m 0,0 c -0.0547,0 -0.10156,0.043 -0.10156,0.10156 m 0,0 v 4 c 0,-0.0547 0.043,-0.10156 0.10156,-0.10156 m 0,0 h -8 c 0.0547,0 0.10156,0.043 0.10156,0.10156 m 0,0 v -4 c 0,-0.0547 -0.043,-0.10156 -0.10156,-0.10156 m 0,0 h -9.5 m 0,0 h -4 c -0.0547,0 -0.10156,0.043 -0.10156,0.10156 m 0,0 v 4 m 0,0 v 10 m 0,0 v 10 m 0,0 v 4 c 0,0.0547 0.043,0.10157 0.10156,0.10157 m 0,0 h 4"
       style="fill:none;stroke:#000000;stroke-width:0.20000002;stroke-linecap:butt;stroke-linejoin:miter;stroke-miterlimit:10;stroke-opacity:1"
       inkscape:connector-curvature="0" />
    <path
       id="path995"
       d="m 135.59979,158.42913 h 9.5 m 0,0 c -0.0547,0 -0.10156,-0.043 -0.10156,-0.10157 m 0,0 v 4 c 0,0.0547 0.043,0.10157 0.10156,0.10157 m 0,0 h 8 c 0.0547,0 0.10156,-0.043 0.10156,-0.10157 m 0,0 v -4 c 0,0.0547 -0.043,0.10157 -0.10156,0.10157 m 0,0 h 8 m 0,0 c -0.0547,0 -0.10156,-0.043 -0.10156,-0.10157 m 0,0 v 4 c 0,0.0547 0.043,0.10157 0.10156,0.10157 m 0,0 h 8 c 0.0547,0 0.10156,-0.043 0.10156,-0.10157 m 0,0 v -4 c 0,0.0547 -0.043,0.10157 -0.10156,0.10157 m 0,0 h 8 m 0,0 c -0.0547,0 -0.10156,-0.043 -0.10156,-0.10157 m 0,0 v 4 c 0,0.0547 0.043,0.10157 0.10156,0.10157 m 0,0 h 8 c 0.0547,0 0.10156,-0.043 0.10156,-0.10157 m 0,0 v -4 c 0,0.0547 -0.043,0.10157 -0.10156,0.10157 m 0,0 h 8 m 0,0 c -0.0547,0 -0.10156,-0.043 -0.10156,-0.10157 m 0,0 v 4 c 0,0.0547 0.043,0.10157 0.10156,0.10157 m 0,0 h 8 c 0.0547,0 0.10156,-0.043 0.10156,-0.10157 m 0,0 v -4 c 0,0.0547 -0.043,0.10157 -0.10156,0.10157 m 0,0 h 8 m 0,0 c -0.0547,0 -0.10156,-0.043 -0.10156,-0.10157 m 0,0 v 4 c 0,0.0547 0.043,0.10157 0.10156,0.10157 m 0,0 h 8 c 0.0547,0 0.10157,-0.043 0.10157,-0.10157 m 0,0 v -4 c 0,0.0547 -0.043,0.10157 -0.10157,0.10157 m 0,0 h 9.5 m 0,0 c 0.0547,0 0.10157,-0.043 0.10157,-0.10157 m 0,0 v 0 m 0,0 v -10.99999 m 0,0 c 0,0.0547 -0.043,0.10156 -0.10157,0.10156 m 0,0 h 4.00001 c 0.0547,0 0.10156,-0.043 0.10156,-0.10156 m 0,0 v -8 c 0,-0.0547 -0.043,-0.10157 -0.10156,-0.10157 m 0,0 h -4.00001 c 0.0547,0 0.10157,0.043 0.10157,0.10157 m 0,0 v -8 m 0,0 c 0,0.0547 -0.043,0.10156 -0.10157,0.10156 m 0,0 h 4.00001 c 0.0547,0 0.10156,-0.043 0.10156,-0.10156 m 0,0 v -8 c 0,-0.0547 -0.043,-0.10157 -0.10156,-0.10157 m 0,0 h -4.00001 c 0.0547,0 0.10157,0.043 0.10157,0.10157 m 0,0 v -8 m 0,0 c 0,0.0547 -0.043,0.10156 -0.10157,0.10156 m 0,0 h 4.00001 c 0.0547,0 0.10156,-0.043 0.10156,-0.10156 m 0,0 v -8 c 0,-0.0547 -0.043,-0.10157 -0.10156,-0.10157 m 0,0 h -4.00001 c 0.0547,0 0.10157,0.043 0.10157,0.10157 m 0,0 V 96.327566 m 0,0 c 0,-0.05469 -0.043,-0.101563 -0.10157,-0.101563 m 0,0 v 0 m 0,0 h -9.5 m 0,0 c 0.0547,0 0.10157,0.04297 0.10157,0.101563 m 0,0 v -4 c 0,-0.05469 -0.043,-0.101563 -0.10157,-0.101563 m 0,0 h -8 c -0.0547,0 -0.10156,0.04297 -0.10156,0.101563 m 0,0 v 4 c 0,-0.05469 0.043,-0.101563 0.10156,-0.101563 m 0,0 h -8 m 0,0 c 0.0547,0 0.10156,0.04297 0.10156,0.101563 m 0,0 v -4 c 0,-0.05469 -0.043,-0.101563 -0.10156,-0.101563 m 0,0 h -8 c -0.0547,0 -0.10156,0.04297 -0.10156,0.101563 m 0,0 v 4 c 0,-0.05469 0.043,-0.101563 0.10156,-0.101563 m 0,0 h -8 m 0,0 c 0.0547,0 0.10156,0.04297 0.10156,0.101563 m 0,0 v -4 c 0,-0.05469 -0.043,-0.101563 -0.10156,-0.101563 m 0,0 h -8 c -0.0547,0 -0.10156,0.04297 -0.10156,0.101563 m 0,0 v 4 c 0,-0.05469 0.043,-0.101563 0.10156,-0.101563 m 0,0 h -8 m 0,0 c 0.0547,0 0.10156,0.04297 0.10156,0.101563 m 0,0 v -4 c 0,-0.05469 -0.043,-0.101563 -0.10156,-0.101563 m 0,0 h -8 c -0.0547,0 -0.10156,0.04297 -0.10156,0.101563 m 0,0 v 4 c 0,-0.05469 0.043,-0.101563 0.10156,-0.101563 m 0,0 h -8 m 0,0 c 0.0547,0 0.10156,0.04297 0.10156,0.101563 m 0,0 v -4 c 0,-0.05469 -0.043,-0.101563 -0.10156,-0.101563 m 0,0 h -8 c -0.0547,0 -0.10156,0.04297 -0.10156,0.101563 m 0,0 v 4 c 0,-0.05469 0.043,-0.101563 0.10156,-0.101563 m 0,0 h -9.5 m 0,0 c -0.0547,0 -0.10156,0.04297 -0.10156,0.101563 m 0,0 v 0 m 0,0 v 11.000004 m 0,0 c 0,-0.0547 0.043,-0.10157 0.10156,-0.10157 m 0,0 h -4 c -0.0547,0 -0.10156,0.043 -0.10156,0.10157 m 0,0 v 8 c 0,0.0547 0.043,0.10156 0.10156,0.10156 m 0,0 h 4 c -0.0547,0 -0.10156,-0.043 -0.10156,-0.10156 m 0,0 v 8 m 0,0 c 0,-0.0547 0.043,-0.10157 0.10156,-0.10157 m 0,0 h -4 c -0.0547,0 -0.10156,0.043 -0.10156,0.10157 m 0,0 v 8 c 0,0.0547 0.043,0.10156 0.10156,0.10156 m 0,0 h 4 c -0.0547,0 -0.10156,-0.043 -0.10156,-0.10156 m 0,0 v 8 m 0,0 c 0,-0.0547 0.043,-0.10157 0.10156,-0.10157 m 0,0 h -4 c -0.0547,0 -0.10156,0.043 -0.10156,0.10157 m 0,0 v 8 c 0,0.0547 0.043,0.10156 0.10156,0.10156 m 0,0 h 4 c -0.0547,0 -0.10156,-0.043 -0.10156,-0.10156 m 0,0 v 10.99999 m 0,0 c 0,0.0547 0.043,0.10157 0.10156,0.10157 m 0,0 v 0"
       style="fill:none;stroke:#000000;stroke-width:0.20000002;stroke-linecap:butt;stroke-linejoin:miter;stroke-miterlimit:10;stroke-opacity:1"
       inkscape:connector-curvature="0" />
    <path
       id="path997"
       d="m 236.79901,158.42913 h 9.5 m 0,0 c -0.0547,0 -0.10156,-0.043 -0.10156,-0.10157 m 0,0 v 4 c 0,0.0547 0.043,0.10157 0.10156,0.10157 m 0,0 h 8 c 0.0547,0 0.10157,-0.043 0.10157,-0.10157 m 0,0 v -4 c 0,0.0547 -0.043,0.10157 -0.10157,0.10157 m 0,0 h 8.00001 m 0,0 c -0.0547,0 -0.10157,-0.043 -0.10157,-0.10157 m 0,0 v 4 c 0,0.0547 0.043,0.10157 0.10157,0.10157 m 0,0 h 8 c 0.0547,0 0.10156,-0.043 0.10156,-0.10157 m 0,0 v -4 c 0,0.0547 -0.043,0.10157 -0.10156,0.10157 m 0,0 h 8 m 0,0 c -0.0547,0 -0.10157,-0.043 -0.10157,-0.10157 m 0,0 v 4 c 0,0.0547 0.043,0.10157 0.10157,0.10157 m 0,0 h 8 c 0.0547,0 0.10156,-0.043 0.10156,-0.10157 m 0,0 v -4 c 0,0.0547 -0.043,0.10157 -0.10156,0.10157 m 0,0 h 8 m 0,0 c -0.0547,0 -0.10156,-0.043 -0.10156,-0.10157 m 0,0 v 4 c 0,0.0547 0.043,0.10157 0.10156,0.10157 m 0,0 h 8 c 0.0547,0 0.10156,-0.043 0.10156,-0.10157 m 0,0 v -4 c 0,0.0547 -0.043,0.10157 -0.10156,0.10157 m 0,0 h 8 m 0,0 c -0.0547,0 -0.10156,-0.043 -0.10156,-0.10157 m 0,0 v 4 c 0,0.0547 0.043,0.10157 0.10156,0.10157 m 0,0 h 8 c 0.0547,0 0.10156,-0.043 0.10156,-0.10157 m 0,0 v -4 c 0,0.0547 -0.043,0.10157 -0.10156,0.10157 m 0,0 h 9.5 m 0,0 c 0.0547,0 0.10156,-0.043 0.10156,-0.10157 m 0,0 v 0 m 0,0 v -10.99999 m 0,0 c 0,0.0547 -0.043,0.10156 -0.10156,0.10156 m 0,0 h 4 c 0.0547,0 0.10156,-0.043 0.10156,-0.10156 m 0,0 v -8 c 0,-0.0547 -0.043,-0.10157 -0.10156,-0.10157 m 0,0 h -4 c 0.0547,0 0.10156,0.043 0.10156,0.10157 m 0,0 v -8 m 0,0 c 0,0.0547 -0.043,0.10156 -0.10156,0.10156 m 0,0 h 4 c 0.0547,0 0.10156,-0.043 0.10156,-0.10156 m 0,0 v -8 c 0,-0.0547 -0.043,-0.10157 -0.10156,-0.10157 m 0,0 h -4 c 0.0547,0 0.10156,0.043 0.10156,0.10157 m 0,0 v -8 m 0,0 c 0,0.0547 -0.043,0.10156 -0.10156,0.10156 m 0,0 h 4 c 0.0547,0 0.10156,-0.043 0.10156,-0.10156 m 0,0 v -8 c 0,-0.0547 -0.043,-0.10157 -0.10156,-0.10157 m 0,0 h -4 c 0.0547,0 0.10156,0.043 0.10156,0.10157 m 0,0 V 96.327566 m 0,0 c 0,-0.05469 -0.043,-0.101563 -0.10156,-0.101563 m 0,0 v 0 m 0,0 h -9.5 m 0,0 c 0.0547,0 0.10156,0.04297 0.10156,0.101563 m 0,0 v -4 c 0,-0.05469 -0.043,-0.101563 -0.10156,-0.101563 m 0,0 h -8 c -0.0547,0 -0.10157,0.04297 -0.10157,0.101563 m 0,0 v 4 c 0,-0.05469 0.043,-0.101563 0.10157,-0.101563 m 0,0 h -8 m 0,0 c 0.0547,0 0.10156,0.04297 0.10156,0.101563 m 0,0 v -4 c 0,-0.05469 -0.043,-0.101563 -0.10156,-0.101563 m 0,0 h -8 c -0.0547,0 -0.10157,0.04297 -0.10157,0.101563 m 0,0 v 4 c 0,-0.05469 0.043,-0.101563 0.10157,-0.101563 m 0,0 h -8 m 0,0 c 0.0547,0 0.10156,0.04297 0.10156,0.101563 m 0,0 v -4 c 0,-0.05469 -0.043,-0.101563 -0.10156,-0.101563 m 0,0 h -8 c -0.0547,0 -0.10157,0.04297 -0.10157,0.101563 m 0,0 v 4 c 0,-0.05469 0.043,-0.101563 0.10157,-0.101563 m 0,0 h -8 m 0,0 c 0.0547,0 0.10156,0.04297 0.10156,0.101563 m 0,0 v -4 c 0,-0.05469 -0.043,-0.101563 -0.10156,-0.101563 m 0,0 h -8 c -0.0547,0 -0.10157,0.04297 -0.10157,0.101563 m 0,0 v 4 c 0,-0.05469 0.043,-0.101563 0.10157,-0.101563 m 0,0 h -8.00001 m 0,0 c 0.0547,0 0.10157,0.04297 0.10157,0.101563 m 0,0 v -4 c 0,-0.05469 -0.043,-0.101563 -0.10157,-0.101563 m 0,0 h -8 c -0.0547,0 -0.10156,0.04297 -0.10156,0.101563 m 0,0 v 4 c 0,-0.05469 0.043,-0.101563 0.10156,-0.101563 m 0,0 h -9.5 m 0,0 c -0.0547,0 -0.10156,0.04297 -0.10156,0.101563 m 0,0 v 0 m 0,0 v 11.000004 m 0,0 c 0,-0.0547 0.043,-0.10157 0.10156,-0.10157 m 0,0 h -4 c -0.0547,0 -0.10156,0.043 -0.10156,0.10157 m 0,0 v 8 c 0,0.0547 0.043,0.10156 0.10156,0.10156 m 0,0 h 4 c -0.0547,0 -0.10156,-0.043 -0.10156,-0.10156 m 0,0 v 8 m 0,0 c 0,-0.0547 0.043,-0.10157 0.10156,-0.10157 m 0,0 h -4 c -0.0547,0 -0.10156,0.043 -0.10156,0.10157 m 0,0 v 8 c 0,0.0547 0.043,0.10156 0.10156,0.10156 m 0,0 h 4 c -0.0547,0 -0.10156,-0.043 -0.10156,-0.10156 m 0,0 v 8 m 0,0 c 0,-0.0547 0.043,-0.10157 0.10156,-0.10157 m 0,0 h -4 c -0.0547,0 -0.10156,0.043 -0.10156,0.10157 m 0,0 v 8 c 0,0.0547 0.043,0.10156 0.10156,0.10156 m 0,0 h 4 c -0.0547,0 -0.10156,-0.043 -0.10156,-0.10156 m 0,0 v 10.99999 m 0,0 c 0,0.0547 0.043,0.10157 0.10156,0.10157 m 0,0 v 0"
       style="fill:none;stroke:#000000;stroke-width:0.20000002;stroke-linecap:butt;stroke-linejoin:miter;stroke-miterlimit:10;stroke-opacity:1"
       inkscape:connector-curvature="0" />
  </g>
</svg>
