<?xml version="1.0" encoding="UTF-8" standalone="no"?>
<!-- Created with Inkscape (http://www.inkscape.org/) -->

<svg
   xmlns:dc="http://purl.org/dc/elements/1.1/"
   xmlns:cc="http://creativecommons.org/ns#"
   xmlns:rdf="http://www.w3.org/1999/02/22-rdf-syntax-ns#"
   xmlns:svg="http://www.w3.org/2000/svg"
   xmlns="http://www.w3.org/2000/svg"
   xmlns:sodipodi="http://sodipodi.sourceforge.net/DTD/sodipodi-0.dtd"
   xmlns:inkscape="http://www.inkscape.org/namespaces/inkscape"
   width="62.403126mm"
   height="28.403126mm"
   viewBox="0 0 62.403126 28.403126"
   version="1.1"
   id="svg6949"
   inkscape:version="0.92.2 (5c3e80d, 2017-08-06)"
   sodipodi:docname="Front.svg">
  <defs
     id="defs6943" />
  <sodipodi:namedview
     id="base"
     pagecolor="#ffffff"
     bordercolor="#666666"
     borderopacity="1.0"
     inkscape:pageopacity="0.0"
     inkscape:pageshadow="2"
     inkscape:zoom="0.35"
     inkscape:cx="112.21289"
     inkscape:cy="-394.89613"
     inkscape:document-units="mm"
     inkscape:current-layer="layer1"
     showgrid="false"
     fit-margin-top="0"
     fit-margin-left="0"
     fit-margin-right="0"
     fit-margin-bottom="0"
     inkscape:window-width="1440"
     inkscape:window-height="828"
     inkscape:window-x="0"
     inkscape:window-y="23"
     inkscape:window-maximized="0" />
  <metadata
     id="metadata6946">
    <rdf:RDF>
      <cc:Work
         rdf:about="">
        <dc:format>image/svg+xml</dc:format>
        <dc:type
           rdf:resource="http://purl.org/dc/dcmitype/StillImage" />
        <dc:title></dc:title>
      </cc:Work>
    </rdf:RDF>
  </metadata>
  <g
     inkscape:label="Laag 1"
     inkscape:groupmode="layer"
     id="layer1"
     transform="translate(49.344423,-15.947275)">
    <g
       transform="translate(-155.44364,-9912.2496)"
       id="g5499"
       style="stroke:#ff0000;stroke-width:0.19999999;stroke-miterlimit:9.33333302;stroke-dasharray:none;stroke-opacity:1">
      <path
         id="path991"
         transform="matrix(1,0,0,-1,106.30078,9956.5)"
         d="m 0,0 h 11 m 0,0 c 0.05469,0 0.101562,0.0429688 0.101562,0.101562 m 0,0 v 4 C 11.101562,4.046875 11.058594,4 11,4 m 0,0 h 8 c -0.05469,0 -0.101562,0.042969 -0.101562,0.101562 m 0,0 v -4 C 18.898438,0.046875 18.941406,0 19,0 m 0,0 h 8 m 0,0 c 0.05469,0 0.101562,0.0429688 0.101562,0.101562 m 0,0 v 4 C 27.101562,4.046875 27.058594,4 27,4 m 0,0 h 8 c -0.05469,0 -0.101562,0.042969 -0.101562,0.101562 m 0,0 v -4 C 34.898438,0.046875 34.941406,0 35,0 m 0,0 h 8 m 0,0 c 0.05469,0 0.101562,0.0429688 0.101562,0.101562 m 0,0 v 4 C 43.101562,4.046875 43.058594,4 43,4 m 0,0 h 8 c -0.05469,0 -0.101562,0.042969 -0.101562,0.101562 m 0,0 v -4 C 50.898438,0.046875 50.941406,0 51,0 m 0,0 h 11 m 0,0 c 0.05469,0 0.101562,0.0429688 0.101562,0.101562 m 0,0 v 4 m 0,0 v 10 m 0,0 v 10 m 0,0 v 4 c 0,0.05469 -0.04297,0.101563 -0.101562,0.101563 m 0,0 v 0 m 0,0 H 51 m 0,0 c -0.05469,0 -0.101562,-0.04297 -0.101562,-0.101563 m 0,0 v -4 c 0,0.05469 0.04297,0.101563 0.101562,0.101563 m 0,0 h -8 c 0.05469,0 0.101562,-0.04297 0.101562,-0.101563 m 0,0 v 4 c 0,0.05469 -0.04297,0.101563 -0.101562,0.101563 m 0,0 h -8 m 0,0 c -0.05469,0 -0.101562,-0.04297 -0.101562,-0.101563 m 0,0 v -4 c 0,0.05469 0.04297,0.101563 0.101562,0.101563 m 0,0 h -8 c 0.05469,0 0.101562,-0.04297 0.101562,-0.101563 m 0,0 v 4 c 0,0.05469 -0.04297,0.101563 -0.101562,0.101563 m 0,0 h -8 m 0,0 c -0.05469,0 -0.101563,-0.04297 -0.101563,-0.101563 m 0,0 v -4 c 0,0.05469 0.04297,0.101563 0.101563,0.101563 m 0,0 h -8 c 0.05469,0 0.101562,-0.04297 0.101562,-0.101563 m 0,0 v 4 c 0,0.05469 -0.04297,0.101563 -0.101562,0.101563 m 0,0 H 0 m 0,0 c -0.0546875,0 -0.101563,-0.04297 -0.101563,-0.101563 m 0,0 v -4 m 0,0 v -10 m 0,0 1e-6,-10 m 0,0 v -4 C -0.101562,0.046875 -0.0585938,0 0,0 m 0,0 v 0"
         style="fill:none;stroke:#ff0000;stroke-width:0.19999999;stroke-linecap:butt;stroke-linejoin:miter;stroke-miterlimit:9.33333302;stroke-dasharray:none;stroke-opacity:1"
         inkscape:connector-curvature="0" />
      <path
         transform="translate(-116.829,20.19515)"
         inkscape:connector-curvature="0"
         id="path1622"
         d="m 236.3519,9914.6534 h 7.5"
         style="fill:none;stroke:#ff0000;stroke-width:0.19999999;stroke-linecap:butt;stroke-linejoin:miter;stroke-miterlimit:9.33333302;stroke-dasharray:none;stroke-opacity:1" />
      <path
         transform="translate(-116.829,20.19515)"
         inkscape:connector-curvature="0"
         id="path1622-0"
         d="m 228.8519,9929.6534 h 7.5"
         style="fill:none;stroke:#ff0000;stroke-width:0.19999999;stroke-linecap:butt;stroke-linejoin:miter;stroke-miterlimit:9.33333302;stroke-dasharray:none;stroke-opacity:1" />
      <path
         transform="translate(-116.829,20.19515)"
         inkscape:connector-curvature="0"
         id="path1622-7"
         d="m 228.8519,9914.6534 v 7.5"
         style="fill:none;stroke:#ff0000;stroke-width:0.19999999;stroke-linecap:butt;stroke-linejoin:miter;stroke-miterlimit:9.33333302;stroke-dasharray:none;stroke-opacity:1" />
      <path
         transform="translate(-116.829,20.19515)"
         inkscape:connector-curvature="0"
         id="path1622-7-2"
         d="m 228.8519,9922.1534 v 7.5"
         style="fill:none;stroke:#ff0000;stroke-width:0.19999999;stroke-linecap:butt;stroke-linejoin:miter;stroke-miterlimit:9.33333302;stroke-dasharray:none;stroke-opacity:1" />
      <path
         transform="translate(-116.829,20.19515)"
         inkscape:connector-curvature="0"
         id="path1622-6"
         d="m 236.3519,9929.6534 h 7.5"
         style="fill:none;stroke:#ff0000;stroke-width:0.19999999;stroke-linecap:butt;stroke-linejoin:miter;stroke-miterlimit:9.33333302;stroke-dasharray:none;stroke-opacity:1" />
      <path
         transform="translate(-116.829,20.19515)"
         inkscape:connector-curvature="0"
         id="path1699"
         d="m 243.8519,9929.6534 v -7.5"
         style="fill:none;stroke:#ff0000;stroke-width:0.19999999;stroke-linecap:butt;stroke-linejoin:miter;stroke-miterlimit:9.33333302;stroke-dasharray:none;stroke-opacity:1" />
      <path
         transform="translate(-116.829,20.19515)"
         inkscape:connector-curvature="0"
         id="path1622-7-0"
         d="m 243.8519,9914.6534 v 7.5"
         style="fill:none;stroke:#ff0000;stroke-width:0.19999999;stroke-linecap:butt;stroke-linejoin:miter;stroke-miterlimit:9.33333302;stroke-dasharray:none;stroke-opacity:1" />
      <path
         transform="translate(-116.829,20.19515)"
         inkscape:connector-curvature="0"
         id="path1622-4"
         d="m 228.8519,9914.6534 h 7.5"
         style="fill:none;stroke:#ff0000;stroke-width:0.19999999;stroke-linecap:butt;stroke-linejoin:miter;stroke-miterlimit:9.33333302;stroke-dasharray:none;stroke-opacity:1" />
    </g>
  </g>
</svg>
