<?xml version="1.0" encoding="UTF-8" standalone="no"?>
<!-- Created with Inkscape (http://www.inkscape.org/) -->

<svg
   xmlns:dc="http://purl.org/dc/elements/1.1/"
   xmlns:cc="http://creativecommons.org/ns#"
   xmlns:rdf="http://www.w3.org/1999/02/22-rdf-syntax-ns#"
   xmlns:svg="http://www.w3.org/2000/svg"
   xmlns="http://www.w3.org/2000/svg"
   xmlns:sodipodi="http://sodipodi.sourceforge.net/DTD/sodipodi-0.dtd"
   xmlns:inkscape="http://www.inkscape.org/namespaces/inkscape"
   width="99.403122mm"
   height="28.403126mm"
   viewBox="0 0 99.403122 28.403126"
   version="1.1"
   id="svg7562"
   inkscape:version="0.92.2 (5c3e80d, 2017-08-06)"
   sodipodi:docname="Side1.svg">
  <defs
     id="defs7556" />
  <sodipodi:namedview
     id="base"
     pagecolor="#ffffff"
     bordercolor="#666666"
     borderopacity="1.0"
     inkscape:pageopacity="0.0"
     inkscape:pageshadow="2"
     inkscape:zoom="0.35"
     inkscape:cx="710.70557"
     inkscape:cy="-446.32491"
     inkscape:document-units="mm"
     inkscape:current-layer="layer1"
     showgrid="false"
     fit-margin-top="0"
     fit-margin-left="0"
     fit-margin-right="0"
     fit-margin-bottom="0"
     inkscape:window-width="1440"
     inkscape:window-height="828"
     inkscape:window-x="0"
     inkscape:window-y="23"
     inkscape:window-maximized="0" />
  <metadata
     id="metadata7559">
    <rdf:RDF>
      <cc:Work
         rdf:about="">
        <dc:format>image/svg+xml</dc:format>
        <dc:type
           rdf:resource="http://purl.org/dc/dcmitype/StillImage" />
        <dc:title></dc:title>
      </cc:Work>
    </rdf:RDF>
  </metadata>
  <g
     inkscape:label="Laag 1"
     inkscape:groupmode="layer"
     id="layer1"
     transform="translate(207.69561,-2.340075)">
    <g
       id="g6291"
       transform="translate(-87.980757,-9926.2499)"
       style="stroke:#ff0000;stroke-width:0.19999999;stroke-miterlimit:9.33333302;stroke-dasharray:none;stroke-opacity:1">
      <g
         id="g6303"
         style="stroke:#ff0000;stroke-width:0.19999999;stroke-miterlimit:9.33333302;stroke-dasharray:none;stroke-opacity:1">
        <path
           id="path993"
           transform="matrix(1,0,0,-1,-115.51329,9956.8931)"
           d="m 0,0 h 9.5 m 0,0 c 0.054688,0 0.101562,0.0429688 0.101562,0.101562 m 0,0 v 4 C 9.601562,4.046875 9.558594,4 9.5,4 m 0,0 h 8 c -0.05469,0 -0.101562,0.042969 -0.101562,0.101562 m 0,0 v -4 C 17.398438,0.046875 17.441406,0 17.5,0 m 0,0 h 8 m 0,0 c 0.05469,0 0.101562,0.0429688 0.101562,0.101562 m 0,0 v 4 C 25.601562,4.046875 25.558594,4 25.5,4 m 0,0 h 8 c -0.05469,0 -0.101562,0.042969 -0.101562,0.101562 m 0,0 v -4 C 33.398438,0.046875 33.441406,0 33.5,0 m 0,0 h 8 m 0,0 c 0.05469,0 0.101562,0.0429688 0.101562,0.101562 m 0,0 v 4 C 41.601562,4.046875 41.558594,4 41.5,4 m 0,0 h 8 c -0.05469,0 -0.101562,0.042969 -0.101562,0.101562 m 0,0 v -4 C 49.398438,0.046875 49.441406,0 49.5,0 m 0,0 h 8 m 0,0 c 0.05469,0 0.101562,0.0429688 0.101562,0.101562 m 0,0 v 4 C 57.601562,4.046875 57.558594,4 57.5,4 m 0,0 h 8 c -0.05469,0 -0.101562,0.042969 -0.101562,0.101562 m 0,0 v -4 C 65.398438,0.046875 65.441406,0 65.5,0 m 0,0 h 8 m 0,0 c 0.05469,0 0.101562,0.0429688 0.101562,0.101562 m 0,0 v 4 C 73.601562,4.046875 73.558594,4 73.5,4 m 0,0 h 8 c -0.05469,0 -0.101562,0.042969 -0.101562,0.101562 m 0,0 v -4 C 81.398438,0.046875 81.441406,0 81.5,0 m 0,0 H 91 m 0,0 h 4 c 0.05469,0 0.101562,0.0429688 0.101562,0.101562 m 0,0 v 4 m 0,0 v 10 m 0,0 v 10 m 0,0 v 4 c 0,0.05469 -0.04297,0.101563 -0.101562,0.101563 m 0,0 h -4 m 0,0 h -9.5 m 0,0 c -0.05469,0 -0.101563,-0.04297 -0.101563,-0.101563 m 0,0 v -4 c 0,0.05469 0.04297,0.101563 0.101563,0.101563 m 0,0 h -8 c 0.05469,0 0.101562,-0.04297 0.101562,-0.101563 m 0,0 v 4 c 0,0.05469 -0.04297,0.101563 -0.101562,0.101563 m 0,0 h -8 m 0,0 c -0.05469,0 -0.101563,-0.04297 -0.101563,-0.101563 m 0,0 v -4 c 0,0.05469 0.04297,0.101563 0.101563,0.101563 m 0,0 h -8 c 0.05469,0 0.101562,-0.04297 0.101562,-0.101563 m 0,0 v 4 c 0,0.05469 -0.04297,0.101563 -0.101562,0.101563 m 0,0 h -8 m 0,0 c -0.05469,0 -0.101563,-0.04297 -0.101563,-0.101563 m 0,0 v -4 c 0,0.05469 0.04297,0.101563 0.101563,0.101563 m 0,0 h -8 c 0.05469,0 0.101562,-0.04297 0.101562,-0.101563 m 0,0 v 4 c 0,0.05469 -0.04297,0.101563 -0.101562,0.101563 m 0,0 h -8 m 0,0 c -0.05469,0 -0.101563,-0.04297 -0.101563,-0.101563 m 0,0 v -4 c 0,0.05469 0.04297,0.101563 0.101563,0.101563 m 0,0 h -8 c 0.05469,0 0.101562,-0.04297 0.101562,-0.101563 m 0,0 v 4 c 0,0.05469 -0.04297,0.101563 -0.101562,0.101563 m 0,0 h -8 m 0,0 c -0.05469,0 -0.101563,-0.04297 -0.101563,-0.101563 m 0,0 v -4 c 0,0.05469 0.04297,0.101563 0.101563,0.101563 m 0,0 h -8 c 0.054687,0 0.101562,-0.04297 0.101562,-0.101563 m 0,0 v 4 c 0,0.05469 -0.042968,0.101563 -0.101562,0.101563 m 0,0 H 0 m 0,0 h -4 c -0.054688,0 -0.101563,-0.04297 -0.101563,-0.101563 m 0,0 v -4 m 0,0 v -10 m 0,0 v -10 m 0,0 10e-7,-4 C -4.101562,0.046875 -4.058594,0 -4,0 m 0,0 h 4"
           style="fill:none;stroke:#ff0000;stroke-width:0.19999999;stroke-linecap:butt;stroke-linejoin:miter;stroke-miterlimit:9.33333302;stroke-dasharray:none;stroke-opacity:1"
           inkscape:connector-curvature="0" />
        <path
           style="fill:none;stroke:#ff0000;stroke-width:0.19999999;stroke-linecap:butt;stroke-linejoin:miter;stroke-miterlimit:9.33333302;stroke-dasharray:none;stroke-opacity:1"
           d="m -108.04237,9950.4915 v -4"
           id="path6206"
           inkscape:connector-curvature="0" />
        <path
           style="fill:none;stroke:#ff0000;stroke-width:0.19999999;stroke-linecap:butt;stroke-linejoin:miter;stroke-miterlimit:9.33333302;stroke-dasharray:none;stroke-opacity:1"
           d="m -108.04237,9946.4915 v -4"
           id="path6206-4"
           inkscape:connector-curvature="0" />
        <path
           style="fill:none;stroke:#ff0000;stroke-width:0.19999999;stroke-linecap:butt;stroke-linejoin:miter;stroke-miterlimit:9.33333302;stroke-dasharray:none;stroke-opacity:1"
           d="m -102.04237,9950.4915 h 6"
           id="path6223"
           inkscape:connector-curvature="0" />
        <path
           style="fill:none;stroke:#ff0000;stroke-width:0.19999999;stroke-linecap:butt;stroke-linejoin:miter;stroke-miterlimit:9.33333302;stroke-dasharray:none;stroke-opacity:1"
           d="m -102.04237,9942.4915 h 6"
           id="path6223-8"
           inkscape:connector-curvature="0" />
        <path
           style="fill:none;stroke:#ff0000;stroke-width:0.19999999;stroke-linecap:butt;stroke-linejoin:miter;stroke-miterlimit:9.33333302;stroke-dasharray:none;stroke-opacity:1"
           d="m -108.04237,9942.4915 h 6"
           id="path6223-5"
           inkscape:connector-curvature="0" />
        <path
           style="fill:none;stroke:#ff0000;stroke-width:0.19999999;stroke-linecap:butt;stroke-linejoin:miter;stroke-miterlimit:9.33333302;stroke-dasharray:none;stroke-opacity:1"
           d="m -108.04237,9950.4915 h 6"
           id="path6223-9"
           inkscape:connector-curvature="0" />
        <path
           style="fill:none;stroke:#ff0000;stroke-width:0.19999999;stroke-linecap:butt;stroke-linejoin:miter;stroke-miterlimit:9.33333302;stroke-dasharray:none;stroke-opacity:1"
           d="m -96.04237,9946.4915 v -4"
           id="path6206-3"
           inkscape:connector-curvature="0" />
        <path
           style="fill:none;stroke:#ff0000;stroke-width:0.19999999;stroke-linecap:butt;stroke-linejoin:miter;stroke-miterlimit:9.33333302;stroke-dasharray:none;stroke-opacity:1"
           d="m -96.04237,9950.4915 v -4"
           id="path6206-37"
           inkscape:connector-curvature="0" />
      </g>
    </g>
  </g>
</svg>
