<?xml version="1.0" encoding="UTF-8" standalone="no"?>
<!-- Created with Inkscape (http://www.inkscape.org/) -->

<svg
   xmlns:dc="http://purl.org/dc/elements/1.1/"
   xmlns:cc="http://creativecommons.org/ns#"
   xmlns:rdf="http://www.w3.org/1999/02/22-rdf-syntax-ns#"
   xmlns:svg="http://www.w3.org/2000/svg"
   xmlns="http://www.w3.org/2000/svg"
   xmlns:sodipodi="http://sodipodi.sourceforge.net/DTD/sodipodi-0.dtd"
   xmlns:inkscape="http://www.inkscape.org/namespaces/inkscape"
   width="99.403122mm"
   height="28.403126mm"
   viewBox="0 0 99.403122 28.403126"
   version="1.1"
   id="svg8167"
   inkscape:version="0.92.2 (5c3e80d, 2017-08-06)"
   sodipodi:docname="Side2.svg">
  <defs
     id="defs8161" />
  <sodipodi:namedview
     id="base"
     pagecolor="#ffffff"
     bordercolor="#666666"
     borderopacity="1.0"
     inkscape:pageopacity="0.0"
     inkscape:pageshadow="2"
     inkscape:zoom="0.35"
     inkscape:cx="533.5627"
     inkscape:cy="-303.46766"
     inkscape:document-units="mm"
     inkscape:current-layer="layer1"
     showgrid="false"
     fit-margin-top="0"
     fit-margin-left="0"
     fit-margin-right="0"
     fit-margin-bottom="0"
     inkscape:window-width="1440"
     inkscape:window-height="828"
     inkscape:window-x="0"
     inkscape:window-y="23"
     inkscape:window-maximized="0" />
  <metadata
     id="metadata8164">
    <rdf:RDF>
      <cc:Work
         rdf:about="">
        <dc:format>image/svg+xml</dc:format>
        <dc:type
           rdf:resource="http://purl.org/dc/dcmitype/StillImage" />
        <dc:title></dc:title>
      </cc:Work>
    </rdf:RDF>
  </metadata>
  <g
     inkscape:label="Laag 1"
     inkscape:groupmode="layer"
     id="layer1"
     transform="translate(160.82656,-40.137723)">
    <path
       style="fill:none;stroke:#ff0000;stroke-width:0.19999999;stroke-linecap:butt;stroke-linejoin:miter;stroke-miterlimit:9.33333302;stroke-dasharray:none;stroke-opacity:1"
       d="m -156.625,68.440848 h 9.5 m 0,0 c 0.0547,0 0.10156,-0.04297 0.10156,-0.101563 m 0,0 v -3.999999 c 0,0.05469 -0.043,0.101562 -0.10156,0.101562 m 0,0 h 8 c -0.0547,0 -0.10156,-0.04297 -0.10156,-0.101562 m 0,0 v 3.999999 c 0,0.05469 0.043,0.101563 0.10156,0.101563 m 0,0 h 8 m 0,0 c 0.0547,0 0.10156,-0.04297 0.10156,-0.101563 m 0,0 v -3.999999 c 0,0.05469 -0.043,0.101562 -0.10156,0.101562 m 0,0 h 8 c -0.0547,0 -0.10156,-0.04297 -0.10156,-0.101562 m 0,0 v 3.999999 c 0,0.05469 0.043,0.101563 0.10156,0.101563 m 0,0 h 8 m 0,0 c 0.0547,0 0.10156,-0.04297 0.10156,-0.101563 m 0,0 v -3.999999 c 0,0.05469 -0.043,0.101562 -0.10156,0.101562 m 0,0 h 8 c -0.0547,0 -0.10156,-0.04297 -0.10156,-0.101562 m 0,0 v 3.999999 c 0,0.05469 0.043,0.101563 0.10156,0.101563 m 0,0 h 8 m 0,0 c 0.05469,0 0.101563,-0.04297 0.101563,-0.101563 m 0,0 v -3.999999 c 0,0.05469 -0.04297,0.101562 -0.101563,0.101562 m 0,0 h 8 c -0.05469,0 -0.101561,-0.04297 -0.101561,-0.101562 m 0,0 v 3.999999 c 0,0.05469 0.04297,0.101563 0.101561,0.101563 m 0,0 h 8 m 0,0 c 0.05469,0 0.101563,-0.04297 0.101563,-0.101563 m 0,0 v -3.999999 c 0,0.05469 -0.04297,0.101562 -0.101563,0.101562 m 0,0 h 8 c -0.05469,0 -0.101561,-0.04297 -0.101561,-0.101562 m 0,0 v 3.999999 c 0,0.05469 0.04297,0.101563 0.101561,0.101563 m 0,0 h 9.500002 m 0,0 h 4 c 0.05469,0 0.10156,-0.04297 0.10156,-0.101563 m 0,0 v -3.999999 m 0,0 v -10 m 0,0 v -10 m 0,0 v -4 c 0,-0.05469 -0.04297,-0.101563 -0.10156,-0.101563 m 0,0 h -4 m 0,0 H -75.125 m 0,0 c -0.05469,0 -0.101561,0.04297 -0.101561,0.101563 m 0,0 v 4 c 0,-0.05469 0.04297,-0.101563 0.101561,-0.101563 m 0,0 h -8 c 0.05469,0 0.101563,0.04297 0.101563,0.101563 m 0,0 v -4 c 0,-0.05469 -0.04297,-0.101563 -0.101563,-0.101563 m 0,0 h -8 m 0,0 c -0.05469,0 -0.101561,0.04297 -0.101561,0.101563 m 0,0 v 4 c 0,-0.05469 0.04297,-0.101563 0.101561,-0.101563 m 0,0 h -8 c 0.05469,0 0.101563,0.04297 0.101563,0.101563 m 0,0 v -4 c 0,-0.05469 -0.04297,-0.101563 -0.101563,-0.101563 m 0,0 h -8 m 0,0 c -0.0547,0 -0.10156,0.04297 -0.10156,0.101563 m 0,0 v 4 c 0,-0.05469 0.043,-0.101563 0.10156,-0.101563 m 0,0 h -8 c 0.0547,0 0.10156,0.04297 0.10156,0.101563 m 0,0 v -4 c 0,-0.05469 -0.043,-0.101563 -0.10156,-0.101563 m 0,0 h -8 m 0,0 c -0.0547,0 -0.10156,0.04297 -0.10156,0.101563 m 0,0 v 4 c 0,-0.05469 0.043,-0.101563 0.10156,-0.101563 m 0,0 h -8 c 0.0547,0 0.10156,0.04297 0.10156,0.101563 m 0,0 v -4 c 0,-0.05469 -0.043,-0.101563 -0.10156,-0.101563 m 0,0 h -8 m 0,0 c -0.0547,0 -0.10156,0.04297 -0.10156,0.101563 m 0,0 v 4 c 0,-0.05469 0.043,-0.101563 0.10156,-0.101563 m 0,0 h -8 c 0.0547,0 0.10156,0.04297 0.10156,0.101563 m 0,0 v -4 c 0,-0.05469 -0.043,-0.101563 -0.10156,-0.101563 m 0,0 h -9.5 m 0,0 h -4 c -0.0547,0 -0.10156,0.04297 -0.10156,0.101563 m 0,0 v 4 m 0,0 v 10 m 0,0 v 10 m 0,0 v 3.999999 c 0,0.05469 0.043,0.101563 0.10156,0.101563 m 0,0 h 4"
       id="path987"
       inkscape:connector-curvature="0" />
  </g>
</svg>
